<svg xmlns="http://www.w3.org/2000/svg" width="256" height="256" viewBox="0 0 100 100"><rect width="100" height="100" rx="0" fill="#ffffff"></rect><path fill="#000000" d="M45.64 26.89L45.64 73.11L39.51 73.11L16.25 37.50L16.25 73.11L10.12 73.11L10.12 26.89L16.25 26.89L39.57 62.66L39.57 26.89L45.64 26.89ZM69.25 73.11L56.46 73.11L56.46 26.89L69.50 26.89Q75.53 26.89 80.17 29.56Q84.80 32.23 87.32 37.15Q89.85 42.07 89.88 48.44L89.88 48.44L89.88 51.40Q89.88 57.93 87.36 62.85Q84.83 67.77 80.15 70.41Q75.47 73.04 69.25 73.11L69.25 73.11ZM69.66 31.91L62.55 31.91L62.55 68.12L68.96 68.12Q76.01 68.12 79.93 63.74Q83.85 59.36 83.85 51.27L83.85 51.27L83.85 48.57Q83.85 40.70 80.15 36.34Q76.45 31.97 69.66 31.91L69.66 31.91Z"></path></svg>